<?xml version="1.0" ?><svg height="512" style="isolation:isolate" viewBox="-4480 384 512 512" width="512" xmlns="http://www.w3.org/2000/svg" xmlns:xlink="http://www.w3.org/1999/xlink"><g><linearGradient gradientTransform="matrix(512,0,0,512,-4480,384)" gradientUnits="userSpaceOnUse" id="_lgradient_12" x1="0" x2="1" y1="0.5" y2="0.5"><stop offset="0.8695652173913043%" stop-opacity="1" style="stop-color:rgb(154,189,234)"/><stop offset="47.82608695652174%" stop-opacity="1" style="stop-color:rgb(81,143,225)"/><stop offset="100%" stop-opacity="1" style="stop-color:rgb(70,122,191)"/></linearGradient><path d=" M -4334.08 384 L -4113.92 384 C -4033.3846 384 -3968 449.3846 -3968 529.92 L -3968 750.08 C -3968 830.6154 -4033.3846 896 -4113.92 896 L -4334.08 896 C -4414.6154 896 -4480 830.6154 -4480 750.08 L -4480 529.92 C -4480 449.3846 -4414.6154 384 -4334.08 384 Z " fill="url(#_lgradient_12)"/><linearGradient gradientTransform="matrix(275,0,0,275,-4361.5,502.5)" gradientUnits="userSpaceOnUse" id="_lgradient_13" x1="0" x2="1" y1="0.5" y2="0.5"><stop offset="0%" stop-opacity="1" style="stop-color:rgb(255,255,255)"/><stop offset="100%" stop-opacity="1" style="stop-color:rgb(230,229,229)"/></linearGradient><path d=" M -4120.0228 502.5 L -4327.9772 502.5 C -4346.4914 502.5 -4361.5 517.5086 -4361.5 536.0228 L -4361.5 743.9772 C -4361.5 762.4914 -4346.4914 777.5 -4327.9772 777.5 L -4120.0228 777.5 C -4101.5086 777.5 -4086.5 762.4914 -4086.5 743.9772 L -4086.5 536.0228 C -4086.5 517.5086 -4101.5086 502.5 -4120.0228 502.5 Z  M -4241.875 716.8421 C -4241.875 725.4413 -4248.846 732.4116 -4257.4445 732.4116 L -4310.1798 732.4116 C -4318.779 732.4116 -4325.7493 725.4406 -4325.7493 716.8421 L -4325.7493 556.157 C -4325.7493 547.5578 -4318.7783 540.5875 -4310.1798 540.5875 L -4257.4445 540.5875 C -4248.8453 540.5875 -4241.875 547.5585 -4241.875 556.157 L -4241.875 716.8421 Z  M -4122.25 647.7163 C -4122.25 656.3155 -4129.221 663.2858 -4137.8195 663.2858 L -4190.5548 663.2858 C -4199.154 663.2858 -4206.1243 656.3149 -4206.1243 647.7163 L -4206.1243 556.157 C -4206.1243 547.5578 -4199.1533 540.5875 -4190.5548 540.5875 L -4137.8195 540.5875 C -4129.2203 540.5875 -4122.25 547.5585 -4122.25 556.157 L -4122.25 647.7163 Z " fill="url(#_lgradient_13)"/></g></svg>